<svg width="277" height="263" viewBox="0 0 277 263" fill="none" xmlns="http://www.w3.org/2000/svg">
<path d="M43.4524 40.01L50.4728 68.4118C50.8811 70.0681 53.2531 69.3358 52.9838 67.7144L45.5637 22.1216C45.3204 20.6483 42.9571 21.0319 43.0006 22.4703C43.0636 38.3702 44.3884 54.2398 46.9626 69.9286C47.6982 74.4153 48.541 78.8845 49.491 83.3362C49.8124 84.8356 51.9846 84.4085 52.0975 82.9875C52.9347 65.0914 52.6765 47.1605 51.3243 29.2961C50.913 24.2051 50.4409 19.1228 49.908 14.0491C49.7256 12.4103 47.3014 12.3056 47.3014 14.0491C47.1573 32.0275 48.5058 49.9867 51.3329 67.7405C51.5675 69.2399 53.87 68.8215 53.8961 67.4005C54.1336 52.3482 53.9627 37.2988 53.3834 22.2524C53.2097 18.004 53.004 13.7615 52.7666 9.52474C52.7666 9.17794 52.6292 8.84533 52.3848 8.60011C52.1404 8.35488 51.8089 8.21711 51.4633 8.21711C51.1176 8.21711 50.7861 8.35488 50.5417 8.60011C50.2973 8.84533 50.16 9.17794 50.16 9.52474C48.9159 25.2007 49.1049 40.9581 50.7247 56.5995C50.8898 58.2384 53.3313 58.343 53.3313 56.5995L53.9569 9.87344C53.9569 8.17352 51.4806 8.21711 51.3503 9.87344L50.2295 23.9697C50.2337 24.2264 50.3126 24.4762 50.4565 24.6884C50.6004 24.9006 50.803 25.066 51.0394 25.1642C51.2757 25.2624 51.5355 25.2891 51.7868 25.241C52.0381 25.193 52.27 25.0723 52.4538 24.8938C57.2202 19.7051 61.6876 14.2478 65.8342 8.54838C66.4771 7.67662 65.3998 6.20336 64.3658 6.63052C60.6105 8.15654 57.445 10.8557 55.3384 14.3281C54.791 15.1999 55.7207 16.6818 56.8067 16.246C65.0111 13.0263 72.5279 8.26567 78.9539 2.21944L76.9034 0.632844C73.9885 5.3391 70.0274 9.30448 65.3302 12.2185C65.045 12.3995 64.8409 12.6845 64.7609 13.0134C64.6809 13.3423 64.7311 13.6896 64.9011 13.9821C65.0711 14.2747 65.3475 14.4896 65.6723 14.5818C65.997 14.674 66.3447 14.6361 66.6422 14.4763L84.7058 4.70394L82.9246 2.91684C77.9902 10.735 71.9856 17.8189 65.087 23.961C63.8184 25.0856 65.6604 26.8814 66.9289 25.8091C73.5995 20.1676 81.1109 15.6111 89.1891 12.3056L87.712 10.3878C81.808 20.0222 73.3968 27.8586 63.384 33.0534C61.8722 33.838 63.2015 35.9825 64.7047 35.3112C71.4196 32.3148 77.7263 28.4713 83.472 23.8738L81.4389 22.2436C76.8861 29.531 71.1846 36.0287 64.557 41.4833L66.4163 41.4833C64.9786 39.8695 64.016 37.8866 63.636 35.7558C63.3666 34.3174 60.9338 34.6313 61.0815 36.0958L63.5317 61.9085C63.662 63.2597 65.8081 63.8263 66.0948 62.2572C67.2462 55.856 66.9072 49.2743 65.1043 43.0263C65.0117 42.7298 64.8175 42.4757 64.5561 42.309C64.2948 42.1423 63.983 42.0738 63.6761 42.1156C63.3692 42.1573 63.087 42.3067 62.8793 42.5371C62.6715 42.7676 62.5518 43.0644 62.5412 43.375C61.675 54.2422 62.1477 65.1752 63.9488 75.9263C64.192 77.4083 66.5032 77.016 66.5032 75.5776L66.5988 47.4548L63.9922 47.4548L63.9922 82.1158C64.0028 82.4263 64.1225 82.7231 64.3302 82.9536C64.538 83.1841 64.8202 83.3334 65.1271 83.3752C65.434 83.4169 65.7458 83.3484 66.0071 83.1817C66.2685 83.0151 66.4627 82.761 66.5553 82.4645C69.8073 68.476 70.8916 54.0683 69.7701 39.7485C69.6398 38.0921 67.1635 38.005 67.1635 39.7485L67.2852 82.2552C67.2893 82.5685 67.4053 82.87 67.6122 83.1046C67.8192 83.3393 68.1032 83.4916 68.4127 83.5339C68.7221 83.5761 69.0364 83.5055 69.2983 83.3348C69.5602 83.1641 69.7523 82.9048 69.8396 82.6039C74.5057 68.6596 76.0687 53.8586 74.4185 39.2429C74.236 37.6127 71.8119 37.4993 71.8119 39.2429L72.3419 80.9302C72.3419 82.3511 74.6183 82.7783 74.9485 81.2789C77.5447 67.4631 78.5476 53.3934 77.9374 39.3475C77.9374 39.0007 77.8001 38.6681 77.5557 38.4228C77.3112 38.1776 76.9797 38.0398 76.6341 38.0398C76.2884 38.0398 75.9569 38.1776 75.7125 38.4228C75.4681 38.6681 75.3308 39.0007 75.3308 39.3475C74.6291 52.3081 75.0506 65.3054 76.5906 78.1929C76.5947 78.5062 76.7108 78.8076 76.9177 79.0423C77.1246 79.2769 77.4087 79.4293 77.7181 79.4715C78.0276 79.5137 78.3418 79.4431 78.6037 79.2724C78.8656 79.1017 79.0577 78.8424 79.1451 78.5416C83.2725 65.4135 84.1669 51.4773 81.7517 37.9265C81.4736 36.3922 79.2928 36.8978 79.1451 38.2752C78.0939 52.1049 78.0242 65.9921 78.9366 79.8318C79.0321 81.244 81.1174 81.6799 81.5431 80.1805C84.9468 66.6988 86.1759 52.7572 85.1837 38.8854C85.0881 37.4993 82.9507 37.0112 82.5771 38.5367C79.8464 51.3155 79.0265 64.4309 80.1443 77.4519C80.2659 78.8467 82.3251 79.3174 82.7509 77.8006C85.7493 65.9584 87.3561 53.8048 87.5383 41.5879H84.9317L84.9317 75.7781C84.9317 77.5216 87.3819 77.417 87.5383 75.7781L91.1614 38.6762H88.5548L86.5825 76.3535C86.5043 77.8442 88.7547 78.097 89.137 76.7022C91.5753 67.9865 93.0324 59.0242 93.4813 49.9829C93.5508 48.5445 91.1527 48.1696 90.9181 49.6342L85.201 85.8207C85.1296 86.1481 85.1863 86.4906 85.3592 86.7773C85.5322 87.064 85.8083 87.2732 86.1306 87.3616C86.4528 87.4499 86.7965 87.4108 87.0908 87.2522C87.3851 87.0936 87.6075 86.8277 87.712 86.5094C91.2397 75.1499 97.11 64.6621 104.941 55.7277L102.908 54.1411C99.2823 62.5623 95.6621 70.9893 92.0476 79.422C91.3873 80.9476 93.6203 82.2814 94.298 80.7384C99.6413 68.443 107.077 57.1745 116.271 47.4374L114.204 45.8508L100.571 67.9497C99.7023 69.3881 101.918 70.6871 102.821 69.2748C111.51 55.7161 119.533 41.768 126.889 27.4306C127.653 25.9312 125.42 24.6148 124.639 26.1055C122.435 30.36 119.076 33.902 114.951 36.3225L116.862 37.7957C119.018 29.9599 121.82 22.3173 125.238 14.9471C125.397 14.6485 125.435 14.2997 125.343 13.9739C125.251 13.648 125.037 13.3707 124.746 13.2001C124.454 13.0296 124.108 12.9792 123.78 13.0595C123.452 13.1398 123.168 13.3446 122.988 13.6307L110.441 33.2713L112.692 34.5877C116.066 27.4899 118.825 20.1138 120.937 12.541C121.01 12.2371 120.972 11.9173 120.831 11.6387C120.69 11.3601 120.455 11.141 120.167 11.0204C119.88 10.8999 119.559 10.8858 119.263 10.9807C118.966 11.0756 118.713 11.2733 118.548 11.5385L105.802 34.9974L108.182 35.9999L116.81 12.0703C117.262 10.8149 115.498 9.89088 114.629 10.7975C108.741 16.9944 105.123 25.0132 104.368 33.5416C104.238 35.041 106.532 35.2851 106.931 33.8903C109.218 25.9562 110.388 17.7403 110.407 9.48115C110.407 8.26941 108.53 7.58945 107.982 8.81862C104.199 17.3224 101.777 26.3722 100.806 35.6338C100.649 37.0896 103.1 37.4296 103.36 35.9825L108.165 9.71653C108.235 9.41454 108.196 9.09745 108.056 8.82115C107.916 8.54485 107.683 8.32708 107.399 8.2062C107.114 8.08533 106.796 8.06911 106.501 8.16042C106.205 8.25172 105.952 8.44468 105.784 8.70529C101.27 15.0159 98.175 22.2346 96.7134 29.8628C96.4093 31.493 98.8074 32.2078 99.2331 30.5602C100.889 24.0669 103.173 17.7515 106.054 11.7041C106.644 10.4662 105.02 8.89708 104.012 10.1175C100.094 14.8545 97.0831 20.278 95.1321 26.1142C94.6281 27.6137 96.7047 28.25 97.5128 27.1255L103.725 18.4689C104.663 17.1613 102.735 16.028 101.683 16.8824L92.9513 23.9087C91.6393 24.9548 93.4986 26.7942 94.7932 25.7568L103.482 18.7305L101.431 17.1439L95.2624 25.8091L97.6431 26.8116C99.4518 21.4086 102.235 16.3852 105.854 11.9918L103.777 10.3791C100.791 16.628 98.4164 23.1532 96.6873 29.8628L99.207 30.5602C100.619 23.1345 103.636 16.1092 108.043 9.97805L105.663 8.97554L100.858 35.2502L103.464 35.5902C104.392 26.7844 106.693 18.1797 110.285 10.0914L107.852 9.43757C107.831 17.4757 106.691 25.4716 104.464 33.1929L107.018 33.5416C107.747 25.6906 111.1 18.3174 116.532 12.6195L114.308 11.3467L105.671 35.3025C105.159 36.7061 107.348 37.604 108.052 36.3138L120.807 12.8548L118.426 11.8523C116.372 19.2053 113.701 26.3706 110.441 33.2713C110.282 33.5698 110.244 33.9187 110.336 34.2445C110.428 34.5704 110.642 34.8477 110.934 35.0183C111.225 35.1888 111.572 35.2392 111.899 35.1589C112.227 35.0786 112.511 34.8738 112.692 34.5877L125.238 14.9471L122.988 13.6307C119.461 21.1978 116.572 29.0478 114.351 37.0983C114.29 37.3476 114.302 37.6094 114.387 37.8518C114.471 38.0942 114.624 38.3068 114.826 38.4638C115.029 38.6208 115.272 38.7154 115.527 38.736C115.782 38.7567 116.038 38.7026 116.263 38.5803C120.78 35.9375 124.463 32.07 126.889 27.4219L124.63 26.0968C117.279 40.4284 109.257 54.3765 100.562 67.941L102.813 69.2661L116.48 47.1671C116.622 46.8926 116.664 46.5764 116.597 46.2743C116.53 45.9721 116.359 45.7033 116.115 45.5149C115.87 45.3266 115.567 45.2308 115.259 45.2444C114.95 45.258 114.657 45.3801 114.429 45.5892C105.06 55.4716 97.4799 66.9178 92.0303 79.4133L94.2806 80.7297C97.8951 72.3085 101.515 63.8816 105.141 55.4488C105.671 54.2022 104.16 52.6417 103.091 53.8622C94.9565 63.1361 88.8609 74.0254 85.201 85.8207L87.712 86.5094L93.4117 50.3316L90.8052 49.9829C90.3662 58.7874 88.9499 67.5153 86.5825 76.0048L89.1891 76.3535L91.1527 38.6762C91.2396 36.9327 88.7025 37.0286 88.5461 38.6762L84.923 75.7781L87.5296 75.7781L87.5296 41.5879C87.5296 41.2411 87.3923 40.9085 87.1479 40.6632C86.9034 40.418 86.5719 40.2802 86.2263 40.2802C85.8806 40.2802 85.5491 40.418 85.3047 40.6632C85.0603 40.9085 84.923 41.2411 84.923 41.5879C84.7507 53.5698 83.176 65.4899 80.2312 77.1032L82.7856 77.4519C81.6774 64.6689 82.471 51.7915 85.1402 39.2429L82.5771 38.8942C83.552 52.5322 82.3405 66.2388 78.9887 79.4918L81.5431 79.8405C80.6308 66.0008 80.7005 52.1136 81.7517 38.2839L79.1885 38.6326C81.4966 51.7279 80.6022 65.1896 76.582 77.8616L79.1451 78.2103C77.605 65.3228 77.1835 52.3255 77.8852 39.3649H75.2787C75.896 53.1758 74.9222 67.0121 72.3767 80.5989L74.9833 80.9476L74.4185 39.2429H71.8119C73.4545 53.62 71.9329 68.1836 67.3547 81.9065L69.9613 82.2552L69.7962 39.7921H67.1896C68.308 53.8705 67.2529 68.0378 64.0617 81.7932L66.6683 82.1419L66.6683 47.4809C66.6683 47.1341 66.531 46.8015 66.2866 46.5563C66.0422 46.3111 65.7107 46.1733 65.365 46.1733C65.0194 46.1733 64.6879 46.3111 64.4434 46.5563C64.199 46.8015 64.0617 47.1341 64.0617 47.4809L63.8966 75.6038L66.4598 75.2638C64.7165 64.7376 64.2759 54.0357 65.1478 43.4011L62.5933 43.7498C64.2834 49.5403 64.6193 55.6439 63.5752 61.5859L66.1383 61.9346L63.6881 36.1133L61.125 36.462C61.6168 39.0251 62.8044 41.4023 64.557 43.3314C64.807 43.5687 65.1381 43.7009 65.4823 43.7009C65.8265 43.7009 66.1576 43.5687 66.4076 43.3314C73.1939 37.7165 79.0298 31.0368 83.6892 23.5513C84.5581 22.1913 82.7248 21.1016 81.6387 21.9647C76.0481 26.403 69.9167 30.1087 63.3927 32.9924L64.6786 35.2677C75.0658 29.86 83.7953 21.725 89.9363 11.7303C90.4837 10.8585 89.5453 9.36783 88.4593 9.81242C79.978 13.2713 72.0911 18.0457 65.087 23.961L66.9289 25.8091C73.9874 19.5094 80.1294 12.2465 85.175 4.23319C85.9048 3.08247 84.4973 1.84458 83.4373 2.48968L65.3302 12.2185L66.6422 14.4763C71.7217 11.3269 76.0043 7.03897 79.1538 1.94919C79.9531 0.667714 78.172 -0.666071 77.112 0.371318C71.0205 6.11618 63.8971 10.6482 56.1204 13.7266L57.5887 15.6445C59.3335 12.7423 61.9492 10.4688 65.0609 9.14989L63.5838 7.23203C59.5609 12.7448 55.23 18.0244 50.6118 23.0457L52.8361 23.9697L53.9482 9.82986H51.3416L50.7161 56.5559H53.3226C51.7055 40.9289 51.5164 25.1863 52.7579 9.52474H50.1513C51.0028 24.5538 51.4227 39.5974 51.4111 54.6555C51.4111 58.9038 51.3706 63.1522 51.2895 67.4005L53.8439 67.0518C51.0661 49.5247 49.7496 31.7958 49.908 14.0491L47.3014 14.0491C49.2557 31.8562 50.1261 49.7662 49.908 67.6795C49.8443 72.7764 49.6937 77.879 49.4562 82.9875L52.0107 82.6388C48.748 67.2447 46.7142 51.6139 45.9286 35.8953C45.6854 31.4261 45.5637 26.9511 45.5637 22.4703L43.0006 22.819L50.4728 68.4118L52.9838 67.7144L45.9634 39.3126C45.5637 37.6824 43.044 38.3711 43.4524 40.01Z" fill="#EE9125"/>
<path d="M207.263 136.448C204.078 138.692 199.868 142.511 200.979 146.946C201.908 150.641 205.987 151.768 209.19 150.465C213.06 148.864 214.249 144.464 213.008 140.627C211.767 136.791 207.957 132.092 203.557 133.905C199.677 135.515 198.237 140.232 199.382 144.077C199.919 146.009 200.999 147.74 202.491 149.06C203.983 150.379 205.823 151.228 207.784 151.504C209.773 151.622 211.753 151.145 213.478 150.133C215.202 149.121 216.596 147.618 217.487 145.81C218.357 144 218.665 141.965 218.373 139.974C218.08 137.982 217.199 136.127 215.846 134.653C213.071 131.558 209.197 129.706 205.076 129.505C203.01 129.408 200.953 130.244 200.172 132.303C199.913 133.131 199.824 134.004 199.911 134.868C199.997 135.732 200.258 136.569 200.675 137.328C203.965 144.015 214.041 143.091 218.302 138.032C219.497 136.639 220.26 134.922 220.498 133.092C220.735 131.263 220.437 129.403 219.639 127.745C218.852 126.05 217.666 124.577 216.186 123.456C214.706 122.334 212.977 121.598 211.151 121.313C203.956 120.362 199.929 128.352 202.316 134.512C202.837 136.027 203.789 137.352 205.053 138.318C206.317 139.285 207.835 139.85 209.415 139.941C213.234 140.17 216.636 137.512 218.519 134.327C219.529 132.657 220.134 130.767 220.285 128.814C220.435 126.861 220.128 124.9 219.387 123.09C217.799 119.148 214.683 116.05 211.16 113.859C209.37 112.749 207.477 111.818 205.51 111.079C204.512 110.692 203.774 111.809 203.913 112.698C205.293 119.561 212.861 124.137 219.535 122.518C226.209 120.899 229.75 113.182 228.162 106.732C226.426 99.789 218.867 96.586 212.418 98.6186C210.861 99.0727 209.417 99.8565 208.182 100.918C206.946 101.98 205.946 103.296 205.249 104.778C203.946 107.915 203.915 111.447 205.162 114.607C206.275 117.71 208.552 120.24 211.498 121.647C213.236 122.366 215.107 122.694 216.981 122.607C218.856 122.52 220.69 122.022 222.356 121.145C229.672 117.564 234.923 108.518 234.819 100.343C234.714 96.234 232.849 92.1158 229.177 90.0655C225.506 88.0152 221.566 89.0888 218.658 91.8782C213.529 96.8851 213.364 105.482 217.139 111.343C221.045 117.414 228.631 119.359 235.157 116.684C238.36 115.438 241.056 113.135 242.812 110.146C244.8 106.582 245.355 101.734 243.072 98.1699C239.601 92.7582 231.139 93.075 227.094 97.6155C222.182 103.106 225.254 111.906 230.965 115.426C237.726 119.641 246.587 116.068 250.927 109.988C251.833 108.7 252.448 107.226 252.728 105.67C253.009 104.114 252.948 102.515 252.55 100.986C251.682 98.0115 249.078 95.9524 245.997 96.9467C242.309 98.1435 239.792 102.341 238.976 105.966C238.533 107.805 238.466 109.716 238.779 111.582C239.093 113.448 239.78 115.23 240.798 116.816C245.043 123.143 254.876 125.686 260.621 119.94C261.888 118.718 262.717 117.104 262.98 115.352C263.242 113.599 262.922 111.808 262.071 110.26C261.169 108.77 259.955 107.499 258.516 106.536C257.076 105.574 255.445 104.944 253.739 104.69C245.433 103.37 239.037 111.132 234.645 117.133C233.439 118.77 232.345 120.653 232.467 122.8C232.59 124.465 233.35 126.015 234.584 127.12C237.344 129.646 241.258 130.262 244.843 130.191C252.541 129.957 259.871 126.798 265.377 121.339C268.061 118.711 270.211 115.575 271.704 112.108C271.867 111.802 271.91 111.445 271.823 111.108C271.736 110.772 271.526 110.481 271.236 110.296C266.514 107.066 260.726 108.395 255.995 110.868C253.426 112.259 251.011 113.926 248.792 115.839C246.525 117.608 244.548 119.729 242.934 122.122C240.391 126.188 239.87 132.4 243.801 135.832C248.375 139.836 255.032 137.037 259.71 134.767C265.05 132.165 269.885 128.612 273.987 124.278C275.723 122.43 277.459 119.57 275.358 117.238C273.718 115.479 270.897 115.329 268.658 115.417C263.42 115.659 258.463 117.889 254.772 121.665C251.361 125.184 248.644 130.596 250.137 135.603C252.038 141.947 259.753 142.238 264.857 140.064C267.465 138.978 269.76 137.242 271.53 135.016C273.299 132.79 274.484 130.146 274.976 127.331C275.023 127.136 275.026 126.932 274.985 126.735C274.944 126.537 274.86 126.352 274.74 126.192C274.619 126.032 274.465 125.901 274.288 125.809C274.111 125.717 273.917 125.666 273.718 125.66C265.907 125.003 258.137 127.339 251.942 132.206C249.339 134.23 245.277 137.609 246.674 141.402C247.716 144.235 251.239 145.291 253.93 144.561C258.018 143.47 259.667 138.806 260.795 135.189C260.887 134.858 260.848 134.503 260.686 134.201C260.524 133.898 260.251 133.672 259.927 133.57C253.079 132.074 246.041 137.644 246.683 144.922C246.799 146.609 247.289 148.249 248.117 149.718C248.945 151.186 250.089 152.447 251.465 153.404C252.125 153.895 252.879 154.24 253.678 154.418C254.477 154.596 255.305 154.602 256.106 154.436C256.908 154.27 257.667 153.936 258.334 153.456C259.001 152.975 259.561 152.358 259.979 151.644C261.862 148.644 261.307 144.992 259.233 142.264C256.889 139.193 253.218 137.389 249.686 136.061C247.639 135.287 245.523 134.715 243.367 134.353C241.371 134.019 239.21 133.667 237.223 134.204C235.868 134.606 234.694 135.475 233.902 136.66C233.11 137.845 232.75 139.273 232.883 140.698C232.945 142.369 233.465 143.99 234.385 145.378C235.304 146.766 236.588 147.866 238.091 148.556C242.222 150.413 246.856 149.621 251.109 148.793C251.301 148.737 251.477 148.638 251.625 148.503C251.773 148.368 251.889 148.2 251.965 148.013C252.04 147.826 252.072 147.624 252.059 147.422C252.046 147.221 251.989 147.025 251.89 146.849L249.339 142.845C248.471 141.411 246.197 142.731 247.091 144.174L249.616 148.213L250.389 146.268C245.746 147.148 238.108 148.512 235.895 142.792C235.27 141.164 235.079 138.85 236.459 137.512C236.979 137.126 237.57 136.848 238.198 136.697C238.826 136.546 239.477 136.524 240.113 136.633C241.827 136.75 243.526 137.027 245.19 137.46C248.346 138.197 251.361 139.458 254.112 141.191C256.238 142.59 258.556 144.816 258.512 147.597C258.512 149.612 257.072 152.208 254.789 151.996C252.185 151.732 250.259 148.987 249.582 146.655C249.148 145.29 249.081 143.832 249.386 142.431C249.691 141.03 250.357 139.737 251.317 138.683C252.314 137.623 253.557 136.835 254.933 136.39C256.308 135.946 257.772 135.86 259.189 136.14L258.321 134.512C257.523 137.081 256.534 140.557 253.912 141.824C252.463 142.528 249.451 142.229 249.104 140.232C248.835 138.709 250.311 137.328 251.274 136.369C252.41 135.231 253.648 134.203 254.971 133.298C257.497 131.534 260.283 130.188 263.225 129.311C266.623 128.322 270.171 127.979 273.692 128.299L272.442 126.636C272.12 128.707 271.353 130.68 270.195 132.417C269.037 134.153 267.517 135.611 265.742 136.685C262.539 138.648 256.994 140.02 253.93 137.055C250.866 134.089 252.776 128.722 254.798 125.739C257.265 122.263 260.854 119.772 264.944 118.699C266.963 118.123 269.074 117.955 271.158 118.206C272.025 118.226 272.856 118.567 273.492 119.165C274.195 120.125 273.102 121.374 272.494 122.052C269.154 125.685 265.259 128.751 260.96 131.133C258.853 132.337 256.649 133.358 254.372 134.186C252.185 134.969 249.703 135.603 247.429 134.917C243.35 133.685 242.786 128.44 244.34 125.026C245.57 122.601 247.295 120.468 249.399 118.77C251.377 116.993 253.509 115.403 255.77 114.018C260.005 111.475 265.464 109.521 269.934 112.575L269.465 110.771C266.892 116.696 262.371 121.532 256.672 124.454C253.891 125.919 250.882 126.889 247.776 127.323C244.793 127.859 241.726 127.641 238.846 126.689C236.034 125.598 234.064 123.231 235.713 120.213C236.61 118.714 237.638 117.3 238.785 115.989C239.854 114.636 240.998 113.346 242.213 112.126C244.539 109.838 247.421 107.726 250.675 107.225C252.039 107.048 253.424 107.172 254.736 107.588C256.049 108.004 257.257 108.702 258.278 109.636C260.292 111.484 261.281 114.238 259.814 116.763C258.235 119.491 254.876 120.653 251.89 120.503C250.362 120.419 248.867 120.02 247.496 119.331C246.125 118.643 244.906 117.678 243.914 116.497C242.922 115.316 242.178 113.943 241.725 112.461C241.273 110.978 241.123 109.418 241.285 107.876C241.432 106.307 241.908 104.789 242.682 103.423C243.456 102.057 244.509 100.875 245.772 99.9562C248.08 98.4603 249.79 99.9562 250.198 102.35C251.205 108.219 245.511 112.971 240.434 114.229C238.971 114.631 237.441 114.713 235.945 114.47C234.449 114.227 233.021 113.665 231.755 112.821C229.478 111.176 227.911 108.706 227.381 105.922C227.106 104.637 227.168 103.301 227.561 102.047C227.954 100.794 228.664 99.6661 229.62 98.777C230.53 98.0249 231.579 97.4646 232.706 97.1292C233.833 96.7937 235.014 96.6898 236.181 96.8235C237.374 96.9152 238.514 97.3566 239.464 98.0941C240.413 98.8316 241.13 99.8333 241.528 100.977C242.578 104.101 241.58 107.726 239.601 110.252C237.849 112.398 235.494 113.953 232.849 114.709C230.204 115.465 227.394 115.387 224.794 114.484C219.587 112.522 216.766 106.635 217.148 101.215C217.331 98.2809 218.613 95.5292 220.733 93.5237C221.822 92.3944 223.298 91.7327 224.855 91.6753C226.412 91.618 227.932 92.1695 229.099 93.2158C234.819 98.1699 231.607 107.585 227.936 112.777C224.517 117.617 217.869 122.263 211.932 118.99C207.471 116.534 205.371 110.04 207.784 105.438C210.283 100.695 216.879 99.393 221.375 101.866C226.174 104.506 227.016 110.868 224.491 115.452C223.875 116.625 223.011 117.646 221.96 118.442C220.91 119.237 219.7 119.788 218.415 120.054C215.759 120.485 213.041 119.875 210.812 118.347C209.708 117.636 208.756 116.709 208.011 115.619C207.265 114.53 206.743 113.3 206.473 112.003L204.815 113.666C210.422 115.839 216.853 120.195 217.712 126.759C218.372 131.828 213.694 138.973 208.035 137.064C203.869 135.612 203.34 129.505 205.527 126.223C208.886 121.286 215.942 124.912 217.573 129.496C219.518 134.855 214.449 139.29 209.467 139.422C207.02 139.484 204.355 138.595 203.088 136.325C202.585 135.445 202.142 134.089 202.619 133.095C203.288 131.687 205.414 132.074 206.621 132.321C209.669 132.867 212.419 134.515 214.362 136.958C215.278 138.125 215.813 139.552 215.89 141.041C215.968 142.53 215.586 144.007 214.796 145.265C213.243 147.72 210.162 149.409 207.28 148.714C205.895 148.333 204.641 147.569 203.659 146.508C202.677 145.447 202.004 144.13 201.717 142.704C201.385 141.231 201.614 139.684 202.359 138.375C203.062 137.178 204.407 135.973 205.891 136.175C207.376 136.377 208.825 138.128 209.615 139.44C210.471 140.797 210.918 142.378 210.899 143.989C210.889 144.62 210.748 145.243 210.486 145.816C210.223 146.388 209.845 146.899 209.375 147.314C208.905 147.729 208.355 148.039 207.759 148.224C207.163 148.409 206.536 148.465 205.918 148.389C205.338 148.337 204.79 148.099 204.353 147.71C203.916 147.321 203.613 146.8 203.487 146.224C203.14 144.754 203.973 143.276 204.833 142.159C205.895 140.833 207.147 139.676 208.547 138.727C209.91 137.759 208.608 135.471 207.228 136.448H207.263Z" fill="#FF5A5E"/>
<path d="M7.42151 189.681L7.36913 242.253L7.36913 257.024H9.98812C9.79948 236.765 10.8227 216.513 13.0523 196.377C13.6634 190.644 14.3967 184.92 15.2523 179.205L12.6769 178.856C11.7923 199.109 11.7923 219.378 12.6769 239.66C12.9272 245.445 13.2502 251.23 13.646 257.015C13.7507 258.674 16.265 258.761 16.265 257.015C16.0467 235.574 15.8372 214.081 17.8189 192.71C18.334 186.669 19.0847 180.637 20.0799 174.639L17.461 174.29L18.8577 204.164L19.5561 219.101C19.7569 223.466 19.7395 228.006 20.3331 232.388C20.8569 236.186 22.1926 240.062 25.6671 242.104C25.8399 242.205 26.0335 242.265 26.233 242.28C26.4325 242.294 26.6326 242.262 26.8181 242.187C27.0035 242.112 27.1693 241.996 27.3027 241.847C27.4361 241.698 27.5336 241.52 27.5877 241.328C30.4422 226.586 31.6862 211.579 31.2979 196.569C31.1757 192.268 30.9225 187.976 30.5384 183.692C30.4162 182.339 28.2512 181.781 27.9718 183.343C25.2676 198.373 25.4602 213.781 28.5393 228.739C29.4304 233.021 30.5583 237.249 31.9178 241.406C32.232 242.384 33.7947 242.803 34.3098 241.712C41.2937 227.019 42.6032 210.616 42.5421 194.57C42.5421 189.926 42.4024 185.29 42.2627 180.646C42.2627 180.298 42.1248 179.965 41.8792 179.72C41.6336 179.474 41.3006 179.336 40.9533 179.336C40.606 179.336 40.2729 179.474 40.0273 179.72C39.7817 179.965 39.6438 180.298 39.6438 180.646C39.2364 195.492 39.379 210.333 40.0715 225.168C40.2752 229.434 40.5197 233.703 40.8048 237.975C40.9009 239.355 43.0746 239.861 43.3802 238.324C46.1403 224.33 47.6305 210.115 47.8325 195.853C47.8907 191.779 47.8412 187.731 47.684 183.71H45.0651L48.2777 228.102L49.1507 240.699C49.238 241.895 50.9665 242.611 51.5951 241.362C58.6489 227.395 58.8671 211.523 58.9108 196.263L56.2918 196.613L64.6027 241.799L66.9423 254.588C67.2479 256.247 69.7708 255.549 69.4653 253.89L61.2329 208.704L58.902 195.914C58.6314 194.439 56.3354 194.823 56.283 196.263C56.283 211.017 56.1521 226.565 49.2991 240.035L51.7347 240.699L48.6007 196.394L47.684 183.797C47.5618 182.13 45.0039 182.095 45.0651 183.797C45.7491 201.871 44.3371 219.964 40.8572 237.713L43.4238 238.063C42.4112 223.239 41.9514 208.398 42.0445 193.54C42.0445 189.262 42.1172 184.987 42.2627 180.715H39.6438C40.1152 196.429 40.5691 212.527 36.5621 227.857C35.4508 232.181 33.9399 236.393 32.0487 240.437L34.4407 240.751C28.4489 222.476 27.093 202.997 30.4948 184.068L27.9369 183.727C29.252 198.471 28.9739 213.313 27.1076 227.997C26.575 232.222 25.8854 236.421 25.0822 240.594L27.0028 239.808C24.183 238.141 23.2664 234.763 22.8823 231.698C22.3585 227.456 22.3759 223.117 22.1839 218.848L20.8482 190.31L20.0799 174.29C20.0101 172.902 17.749 172.413 17.5046 173.941C14.0825 195.321 13.4364 216.997 13.4714 238.621C13.4714 244.732 13.5412 250.843 13.6023 257.015H16.2213C14.842 236.779 14.3444 216.517 14.7285 196.229C14.8449 190.409 15.0282 184.618 15.2785 178.856C15.3396 177.407 12.9214 177.031 12.7031 178.507C9.73908 198.754 7.98996 219.16 7.46516 239.616C7.31384 245.436 7.27019 251.256 7.33421 257.076C7.33421 257.424 7.47218 257.757 7.71776 258.002C7.96333 258.248 8.29641 258.386 8.64371 258.386C8.991 258.386 9.32408 258.248 9.56966 258.002C9.81523 257.757 9.9532 257.424 9.9532 257.076L10.023 204.426L10.023 189.655C10.023 189.308 9.88507 188.975 9.6395 188.729C9.39392 188.483 9.06084 188.345 8.71355 188.345C8.36625 188.345 8.03317 188.483 7.78759 188.729C7.54202 188.975 7.40405 189.308 7.40405 189.655L7.42151 189.681Z" fill="#061F61"/>
<path d="M16.4229 204.495L0.94472 208.86C-0.722701 209.332 0.0106153 211.636 1.64312 211.392C23.1178 208.127 44.1579 202.461 64.3678 194.499C70.1121 192.23 75.7837 189.782 81.3825 187.158L80.0643 184.897C61.5955 197.6 42.3295 209.103 22.3855 219.336C16.6994 222.246 10.9667 225.054 5.18748 227.761L6.51443 230.022C19.2252 223.561 31.6596 216.598 43.8175 209.131C47.3095 206.983 50.7782 204.795 54.2236 202.566C55.6291 201.693 54.3458 199.406 52.9054 200.296L15.6372 223.431L4.94304 230.065C4.64625 230.245 4.43109 230.533 4.3431 230.869C4.25511 231.205 4.3012 231.561 4.47162 231.864C9.00247 238.699 18.9633 233.112 24.3846 230.72L52.207 218.498L68.1042 211.514L66.5241 209.41C51.3463 221.231 35.0791 231.582 17.9419 240.323C13.1405 242.767 8.27497 245.095 3.34546 247.307C2.21056 247.813 2.7169 249.359 3.65973 249.699C7.7017 251.201 12.0056 250.301 15.8817 248.686C19.9624 246.816 23.9271 244.703 27.7544 242.357C35.9606 237.666 44.0794 232.821 52.111 227.822C56.6331 225.011 61.1203 222.147 65.5726 219.231C66.9781 218.358 65.7122 216.106 64.2543 216.97L36.4669 233.557C27.3354 238.917 18.0816 244.182 9.0723 249.821C5.36208 252.126 1.63439 255.181 1.28519 259.861C1.27995 260.065 1.32224 260.267 1.40871 260.453C1.49519 260.638 1.62349 260.8 1.78349 260.927C1.94349 261.054 2.13082 261.142 2.33068 261.184C2.53054 261.226 2.73747 261.222 2.93515 261.17C23.014 257.093 40.7184 246.041 56.9823 234.003C61.5917 230.598 66.1225 227.08 70.6534 223.527C71.8232 222.654 70.3042 220.654 69.0733 221.466C56.6476 229.614 44.4868 238.161 32.5908 247.106C29.2501 249.615 25.9269 252.149 22.6212 254.71C21.7482 255.408 22.4815 257.006 23.5466 256.945C30.1551 256.578 36.0391 253.453 41.5128 249.961C47.6238 246.059 53.6474 241.999 59.706 238.018L70.3304 231.034L68.9685 228.747C55.6641 238.402 42.2374 248.136 30.7924 260.053C29.9194 260.926 30.7924 262.768 32.067 262.244C45.8193 256.538 58.3293 248.208 68.8987 237.721C69.9113 236.709 68.532 234.745 67.3098 235.67C61.9323 239.694 57.875 245.228 55.6553 251.567C55.5694 251.896 55.6118 252.245 55.7739 252.543C55.9361 252.841 56.2059 253.067 56.5283 253.173C61.124 254.894 66.133 255.181 70.8954 253.998C75.6577 252.815 79.9501 250.218 83.207 246.547C84.307 245.273 82.4563 243.413 81.3563 244.697C78.4335 248.035 74.5591 250.399 70.2535 251.471C65.9479 252.543 61.4173 252.272 57.2704 250.694L58.1434 252.3C60.1464 246.592 63.7908 241.602 68.6193 237.957L67.0479 235.853C56.8145 246.045 44.6964 254.148 31.3686 259.712L32.6432 261.903C43.9397 250.144 57.1569 240.533 70.3304 231.008C71.6661 230.039 70.4351 227.804 69.0034 228.747L51.011 240.576C45.3976 244.286 39.8192 248.381 33.7606 251.384C30.5968 253.038 27.1316 254.035 23.5728 254.317L24.4457 256.552C36.0857 247.554 47.9642 238.909 60.0814 230.615C63.4977 228.287 66.9344 225.986 70.3915 223.71L68.8026 221.658C53.0887 233.88 36.8772 246.434 18.1689 253.828C13.0128 255.886 7.68399 257.481 2.24548 258.595L3.90417 259.861C4.19226 256.019 7.9636 253.549 10.9405 251.733C15.3055 249.114 19.6705 246.556 23.9743 243.963L50.4523 228.197L65.5551 219.205L64.2369 216.944C56.6069 221.926 48.8925 226.774 41.0938 231.488C33.3939 236.124 25.6592 240.873 17.6538 244.967C13.577 247.054 8.9239 248.852 4.35813 247.176L4.66368 249.568C22.3426 241.695 39.2301 232.154 55.0966 221.073C59.6129 217.931 64.039 214.66 68.3749 211.261C69.6407 210.275 68.0257 208.642 66.786 209.209L40.7533 220.672L27.833 226.364C23.8608 228.11 19.8974 230.179 15.7769 231.541C13.0095 232.414 8.67073 233.461 6.73268 230.537L6.26126 232.361L43.5294 209.227L54.2236 202.592L52.9054 200.322C40.9163 208.057 28.6478 215.303 16.0999 222.06C12.4857 223.998 8.84824 225.898 5.18748 227.761C3.67719 228.529 5.00415 230.72 6.51443 230.022C26.8192 220.526 46.4933 209.737 65.4154 197.721C70.7989 194.299 76.1212 190.778 81.3825 187.158C81.6691 186.976 81.8741 186.691 81.9545 186.362C82.035 186.032 81.9845 185.684 81.8137 185.391C81.6429 185.098 81.3651 184.883 81.0389 184.791C80.7126 184.699 80.3632 184.736 80.0643 184.897C60.4933 194.064 39.9537 201.001 18.8324 205.578C12.9018 206.858 6.93929 207.955 0.94472 208.869L1.64312 211.401L17.1126 207.044C17.4483 206.953 17.734 206.732 17.9067 206.43C18.0794 206.128 18.1251 205.769 18.0336 205.434C17.9421 205.098 17.7211 204.812 17.419 204.64C17.1169 204.467 16.7586 204.421 16.4229 204.513V204.495Z" fill="#061F61"/>
</svg>
