<svg width="79" height="67" viewBox="0 0 79 67" fill="none" xmlns="http://www.w3.org/2000/svg">
<path d="M9.09675 48.1162C5.91155 50.3601 1.70222 54.179 2.81314 58.614C3.74179 62.3098 7.82093 63.4361 11.0235 62.1338C14.8943 60.5323 16.0834 56.1325 14.8423 52.2959C13.6012 48.4594 9.79107 43.7604 5.39081 45.5731C1.51128 47.1834 0.0705676 51.9 1.2162 55.7454C1.75269 57.6774 2.83315 59.409 4.3253 60.728C5.81746 62.0471 7.65656 62.8965 9.61749 63.1721C11.6069 63.2902 13.5868 62.8137 15.3116 61.8016C17.0365 60.7896 18.4304 59.2866 19.3206 57.4789C20.1906 55.6686 20.4995 53.6338 20.2067 51.6421C19.9139 49.6505 19.0331 47.7954 17.6803 46.3211C14.9046 43.2261 11.0307 41.3746 6.90963 41.1734C4.84403 41.0766 2.7871 41.9125 2.00599 43.9716C1.74716 44.7996 1.6583 45.6726 1.74487 46.5367C1.83144 47.4008 2.09162 48.2378 2.50937 48.9961C5.79872 55.6838 15.8751 54.7598 20.1365 49.7001C21.3306 48.3078 22.0941 46.59 22.3318 44.7607C22.5694 42.9315 22.2708 41.0718 21.473 39.4135C20.6859 37.7186 19.5002 36.2456 18.0202 35.124C16.5402 34.0024 14.8111 33.2666 12.9849 32.981C5.79004 32.0307 1.76298 40.0206 4.14971 46.1803C4.67075 47.6957 5.62338 49.0204 6.88709 49.9869C8.15081 50.9533 9.66883 51.518 11.2491 51.6096C15.0679 51.8384 18.4701 49.1809 20.3534 45.9955C21.3628 44.325 21.9677 42.4358 22.1186 40.4827C22.2694 38.5296 21.9619 36.568 21.2213 34.7585C19.6331 30.8164 16.5173 27.7189 12.9936 25.5278C11.2037 24.4173 9.31145 23.486 7.34358 22.7472C6.3455 22.36 5.60778 23.4776 5.74664 24.3663C7.12661 31.2299 14.6947 35.8057 21.3689 34.1866C28.043 32.5675 31.5841 24.8503 29.9958 18.4002C28.26 11.4574 20.7006 8.25442 14.2521 10.2871C12.6953 10.7411 11.2513 11.5249 10.0155 12.5868C8.77975 13.6486 7.78029 14.9642 7.08321 16.4468C5.77979 19.5839 5.7486 23.1155 6.99642 26.2758C8.10899 29.3783 10.3865 31.9088 13.3321 33.3154C15.0696 34.0345 16.9405 34.3621 18.8152 34.2755C20.69 34.1889 22.5238 33.6901 24.1896 32.8138C31.506 29.2324 36.7568 20.1865 36.6526 12.0118C36.5485 7.90244 34.6825 3.78427 31.0113 1.73399C27.34 -0.316298 23.3998 0.757241 20.4923 3.54668C15.363 8.5536 15.1981 17.1507 18.9735 23.0112C22.879 29.0828 30.4645 31.0275 36.9911 28.3525C40.1942 27.106 42.8905 24.8031 44.646 21.8145C46.6335 18.2507 47.189 13.4021 44.9064 9.83833C41.4348 4.42664 32.9727 4.74342 28.9283 9.28396C24.016 14.7749 27.0884 23.5744 32.7991 27.0942C39.5601 31.3091 48.4214 27.7365 52.7609 21.6561C53.6667 20.3684 54.2817 18.8944 54.5622 17.3386C54.8427 15.7828 54.7818 14.1834 54.3839 12.6542C53.516 9.67994 50.9123 7.62086 47.8312 8.6152C44.1426 9.81193 41.6257 14.0093 40.8099 17.6347C40.3668 19.4735 40.2999 21.3849 40.6134 23.2509C40.9268 25.1169 41.614 26.8981 42.6325 28.4845C46.8765 34.8113 56.7098 37.3544 62.4553 31.6083C63.7216 30.3864 64.5512 28.7723 64.8136 27.02C65.0759 25.2677 64.7562 23.4767 63.9047 21.9289C63.0029 20.4386 61.7892 19.1673 60.3495 18.2048C58.9098 17.2423 57.2792 16.6121 55.5729 16.3588C47.2671 15.0388 40.8706 22.8 36.479 28.8013C35.2727 30.438 34.1791 32.3211 34.3006 34.4681C34.4242 36.1331 35.184 37.6834 36.4183 38.7887C39.1782 41.3142 43.0925 41.9301 46.6769 41.8597C54.3748 41.6258 61.7046 38.466 67.2114 33.0074C69.8952 30.3793 72.0447 27.2433 73.5384 23.7767C73.7014 23.4706 73.7436 23.1132 73.6566 22.7767C73.5696 22.4402 73.3599 22.1498 73.0698 21.964C68.3484 18.7346 62.5595 20.0634 57.8294 22.536C55.2597 23.9272 52.8447 25.594 50.6258 27.5077C48.3594 29.2767 46.3823 31.397 44.7675 33.7906C42.2246 37.856 41.7038 44.0684 45.6354 47.5002C50.2093 51.504 56.8661 48.7057 61.544 46.4355C66.8835 43.8331 71.7192 40.2805 75.821 35.9465C77.5568 34.0986 79.2926 31.2387 77.1923 28.9069C75.552 27.147 72.7313 26.9974 70.4921 27.0854C65.254 27.3271 60.2971 29.5573 56.6057 33.333C53.1948 36.8528 50.4783 42.2645 51.9711 47.2714C53.8718 53.6159 61.5874 53.9063 66.6907 51.7328C69.299 50.6468 71.5943 48.9101 73.3635 46.6841C75.1327 44.458 76.3184 41.8148 76.8104 38.9999C76.857 38.804 76.8599 38.6001 76.8189 38.403C76.7779 38.2059 76.6941 38.0205 76.5736 37.8604C76.453 37.7002 76.2988 37.5693 76.1221 37.4772C75.9453 37.3851 75.7506 37.3342 75.552 37.328C67.7412 36.6712 59.9714 39.0072 53.7763 43.8748C51.1726 45.8987 47.1108 49.2777 48.5082 53.0703C49.5496 55.9037 53.0733 56.9597 55.7638 56.2293C59.8516 55.1382 61.5007 50.4744 62.6289 46.8578C62.7211 46.5265 62.6819 46.1718 62.5198 45.8693C62.3576 45.5668 62.0854 45.3406 61.761 45.2387C54.9133 43.7428 47.8746 49.3129 48.5168 56.5901C48.6327 58.2778 49.1229 59.9172 49.951 61.386C50.779 62.8548 51.9235 64.1151 53.299 65.0728C53.9589 65.5635 54.7127 65.9087 55.5121 66.0863C56.3114 66.264 57.1386 66.2702 57.9404 66.1044C58.7422 65.9387 59.501 65.6047 60.168 65.124C60.8349 64.6432 61.3953 64.0263 61.8131 63.3129C63.6964 60.3123 63.141 56.6605 61.0667 53.9327C58.7234 50.8616 55.0521 49.0577 51.5198 47.729C49.4728 46.9551 47.3569 46.3834 45.2015 46.0219C43.2053 45.6875 41.0442 45.3355 39.0567 45.8723C37.7018 46.2749 36.5275 47.1433 35.7356 48.3284C34.9437 49.5135 34.5836 50.9413 34.7172 52.3663C34.7787 54.0375 35.2987 55.6582 36.2185 57.0463C37.1384 58.4344 38.4218 59.5349 39.9246 60.2243C44.0558 62.081 48.6904 61.289 52.9431 60.4619C53.1346 60.4058 53.311 60.3064 53.4592 60.1712C53.6073 60.036 53.7233 59.8686 53.7985 59.6815C53.8737 59.4943 53.906 59.2923 53.8932 59.0907C53.8803 58.889 53.8226 58.693 53.7243 58.5172L51.1726 54.5134C50.3047 53.0791 48.0308 54.399 48.9248 55.8421L51.4504 59.8811L52.2228 57.9364C47.5795 58.8164 39.942 60.1803 37.7288 54.4606C37.1039 52.8327 36.913 50.5184 38.293 49.1809C38.8131 48.7941 39.4044 48.5169 40.032 48.3658C40.6596 48.2146 41.3107 48.1926 41.9468 48.301C43.6607 48.4182 45.3602 48.6951 47.0241 49.1281C50.1803 49.8655 53.1948 51.1262 55.9461 52.8591C58.0724 54.2582 60.3897 56.4845 60.3463 59.2652C60.3463 61.2802 58.9056 63.8761 56.623 63.6649C54.0193 63.4009 52.0926 60.6555 51.4156 58.3236C50.9823 56.958 50.9147 55.5002 51.2197 54.0993C51.5247 52.6985 52.1914 51.405 53.1514 50.3513C54.1476 49.2915 55.3908 48.5031 56.7665 48.0587C58.1422 47.6142 59.6061 47.5281 61.0233 47.8082L60.1554 46.1803C59.3569 48.7497 58.3675 52.2255 55.7465 53.4927C54.2971 54.1966 51.2854 53.8975 50.9383 51.9C50.6692 50.3777 52.1447 48.9961 53.108 48.037C54.2442 46.8996 55.4819 45.8715 56.8053 44.966C59.3308 43.2022 62.1168 41.8567 65.0591 40.9798C68.4565 39.9905 72.0053 39.6474 75.5259 39.9678L74.2762 38.3047C73.9541 40.3753 73.187 42.3487 72.0291 44.0853C70.8712 45.8218 69.351 47.2791 67.576 48.3538C64.3734 50.3161 58.8275 51.6888 55.7638 48.7233C52.7001 45.7579 54.6095 40.3902 56.6317 37.4072C59.0987 33.931 62.6883 31.4404 66.7775 30.3676C68.7969 29.7911 70.9085 29.6236 72.9917 29.8748C73.8594 29.8944 74.6899 30.2356 75.3263 30.834C76.0293 31.7931 74.9358 33.0426 74.3282 33.7202C70.9878 37.3538 67.0934 40.4199 62.7938 42.8013C60.6868 44.0054 58.4831 45.0268 56.2065 45.8547C54.0193 46.6379 51.5371 47.2714 49.2632 46.5851C45.1841 45.3531 44.62 40.1086 46.1735 36.6944C47.404 34.2691 49.1287 32.1366 51.2334 30.438C53.2105 28.6617 55.3427 27.0712 57.6038 25.6862C61.8391 23.1432 67.2982 21.1897 71.7679 24.2431L71.2993 22.4392C68.7263 28.3646 64.2048 33.2009 58.5064 36.1225C55.7247 37.5874 52.7157 38.5577 49.6104 38.9911C46.6274 39.5275 43.56 39.3099 40.6797 38.3575C37.8677 37.2664 35.8976 34.8993 37.5466 31.8811C38.4436 30.3825 39.4718 28.9689 40.6189 27.6573C41.6876 26.304 42.8322 25.0142 44.0471 23.7943C46.3731 21.5065 49.2546 19.3946 52.5092 18.893C53.873 18.7162 55.2583 18.84 56.5705 19.2562C57.8827 19.6723 59.0907 20.3709 60.112 21.3041C62.1255 23.152 63.115 25.9062 61.6482 28.4317C60.0686 31.1595 56.7098 32.3211 53.7243 32.1715C52.1964 32.087 50.7014 31.6884 49.3302 30.9997C47.9591 30.3111 46.7404 29.3468 45.7484 28.1657C44.7563 26.9845 44.0116 25.6111 43.5595 24.129C43.1074 22.6468 42.9573 21.087 43.1185 19.5442C43.2655 17.9759 43.742 16.4577 44.5159 15.0916C45.2899 13.7256 46.3434 12.5434 47.6055 11.6246C49.9142 10.1287 51.6239 11.6246 52.0318 14.0181C53.0386 19.8874 47.3452 24.6391 42.268 25.8974C40.8054 26.2991 39.2755 26.3813 37.7793 26.1386C36.2831 25.8959 34.8548 25.3338 33.5889 24.4895C31.3115 22.8444 29.7453 20.3743 29.2147 17.5907C28.9401 16.3052 29.0024 14.9691 29.3952 13.7156C29.7881 12.462 30.4978 11.3346 31.4539 10.4455C32.3642 9.69333 33.4135 9.13307 34.5402 8.79762C35.6669 8.46216 36.8484 8.35826 38.0152 8.49201C39.2078 8.58361 40.3483 9.02509 41.2976 9.76259C42.2469 10.5001 42.964 11.5017 43.3615 12.6454C44.4117 15.7692 43.4136 19.3946 41.4348 21.9201C39.6827 24.0666 37.3275 25.6213 34.6826 26.3774C32.0376 27.1334 29.2283 27.055 26.6284 26.1526C21.4209 24.1903 18.6003 18.3035 18.9821 12.883C19.1645 9.94936 20.447 7.19767 22.5666 5.19219C23.6561 4.06284 25.132 3.40112 26.6892 3.3438C28.2463 3.28647 29.7657 3.83794 30.9332 4.88421C36.6526 9.83833 33.4414 19.2538 29.7702 24.4455C26.3506 29.2852 19.7025 33.9314 13.7661 30.658C9.30504 28.2029 7.20472 21.7089 9.61749 17.1067C12.117 12.3638 18.7131 11.0615 23.2088 13.5341C28.0083 16.174 28.8502 22.536 26.3246 27.1206C25.7085 28.2938 24.8445 29.3146 23.7943 30.1101C22.7441 30.9057 21.5336 31.4563 20.2493 31.7227C17.5931 32.1535 14.8749 31.5431 12.6465 30.0156C11.5425 29.3048 10.5898 28.3774 9.84457 27.2878C9.09932 26.1983 8.57653 24.9686 8.30695 23.6712L6.64926 25.3343C12.2559 27.5077 18.6871 31.8635 19.5463 38.4279C20.2059 43.4964 15.5279 50.6416 9.86918 48.7321C5.70325 47.2802 5.17383 41.1734 7.36094 37.8912C10.7197 32.9546 17.7758 36.58 19.4074 41.1646C21.3515 46.5235 16.283 50.9584 11.3012 51.0904C8.85373 51.152 6.18928 50.2633 4.92214 47.993C4.41876 47.113 3.97613 45.7579 4.45347 44.7636C5.12176 43.3556 7.24812 43.7428 8.4545 43.9892C11.5029 44.5358 14.2531 46.1831 16.1962 48.6266C17.1123 49.7931 17.6466 51.2204 17.7244 52.7095C17.8021 54.1986 17.4196 55.6752 16.6301 56.9333C15.0766 59.3883 11.9955 61.0779 9.1141 60.3827C7.72883 60.0015 6.47518 59.2377 5.4929 58.1766C4.51061 57.1154 3.83829 55.7985 3.55085 54.3726C3.21872 52.899 3.44812 51.3526 4.1931 50.0433C4.8961 48.8465 6.24135 47.641 7.72546 47.8434C9.20957 48.0458 10.659 49.7969 11.4488 51.108C12.3052 52.4651 12.7517 54.0464 12.7333 55.6574C12.7232 56.2889 12.5824 56.9113 12.3198 57.4841C12.0571 58.0569 11.6787 58.5673 11.2089 58.9822C10.7391 59.3971 10.1886 59.7072 9.59292 59.8924C8.99729 60.0776 8.36991 60.1337 7.7515 60.0571C7.17197 60.0054 6.62383 59.7676 6.18678 59.3783C5.74973 58.989 5.44657 58.4685 5.32137 57.8924C4.97421 56.4229 5.8074 54.9446 6.66662 53.8271C7.72853 52.5012 8.98068 51.3443 10.3812 50.3953C11.7438 49.4273 10.442 47.1394 9.06203 48.1162H9.09675Z" fill="#FF5A5E"/>
</svg>
