<svg width="103" height="21" viewBox="0 0 103 21" fill="none" xmlns="http://www.w3.org/2000/svg">
<path d="M42.3085 20.2432C41.8085 20.2703 41.3178 20.1001 40.942 19.7692C40.606 19.3724 40.4362 18.8612 40.4681 18.3423V2.20723C40.4493 1.95376 40.4816 1.69912 40.563 1.45835C40.6445 1.21759 40.7733 0.995592 40.942 0.805496C41.1317 0.628968 41.3548 0.492098 41.5981 0.402916C41.8414 0.313734 42.1 0.274036 42.3589 0.286149H52.1004C52.297 0.270925 52.4946 0.295202 52.6817 0.357552C52.8687 0.419901 53.0414 0.519061 53.1895 0.649188C53.3166 0.788119 53.4142 0.951303 53.4766 1.12893C53.539 1.30656 53.5648 1.49497 53.5526 1.68284C53.5769 2.0807 53.4469 2.47262 53.1895 2.777C53.0414 2.90712 52.8687 3.00628 52.6817 3.06863C52.4946 3.13098 52.297 3.15526 52.1004 3.14004H44.0329V8.71167H51.5155C51.7073 8.69827 51.8999 8.72349 52.0818 8.78585C52.2636 8.84821 52.4311 8.94644 52.5744 9.07471C52.7097 9.20914 52.8147 9.37087 52.8825 9.54911C52.9503 9.72735 52.9794 9.91801 52.9677 10.1084C52.9795 10.3079 52.9508 10.5077 52.8832 10.6958C52.8156 10.8838 52.7105 11.0562 52.5744 11.2025C52.4311 11.3308 52.2636 11.429 52.0818 11.4914C51.8999 11.5537 51.7073 11.579 51.5155 11.5656H44.043V18.3423C44.043 19.6096 43.4648 20.2432 42.3085 20.2432Z" fill="#061F61"/>
<path d="M58.6146 20.2437C58.3811 20.2598 58.1467 20.2284 57.9257 20.1512C57.7047 20.0741 57.5016 19.9529 57.3288 19.795C57.0123 19.4225 56.8531 18.9415 56.8851 18.4537V1.81448C56.8688 1.57825 56.8996 1.34113 56.9758 1.11692C57.0519 0.892718 57.172 0.685911 57.3288 0.508548C57.6945 0.218135 58.1477 0.0600586 58.6146 0.0600586C59.0815 0.0600586 59.5347 0.218135 59.9004 0.508548C60.0674 0.682263 60.196 0.889256 60.2777 1.11602C60.3593 1.34278 60.3923 1.58421 60.3743 1.82456V12.156H60.4298L65.0485 7.28527C65.3526 6.97084 65.6796 6.67928 66.0266 6.41297C66.3661 6.19205 66.7668 6.08438 67.1712 6.10539C67.3702 6.09023 67.5702 6.11745 67.758 6.18524C67.9457 6.25304 68.1169 6.35987 68.2603 6.49868C68.3852 6.61204 68.4844 6.75074 68.5514 6.90552C68.6183 7.0603 68.6515 7.22758 68.6486 7.3962C68.6251 7.80286 68.4442 8.18442 68.1444 8.4601L63.2786 13.6183V12.156L68.6133 17.9193C68.7681 18.0552 68.8905 18.2239 68.9716 18.4133C69.0528 18.6026 69.0906 18.8076 69.0822 19.0134C69.0738 19.1855 69.03 19.3539 68.9537 19.5083C68.8774 19.6627 68.7701 19.7998 68.6385 19.9109C68.3327 20.1409 67.9569 20.2584 67.5746 20.2437C67.1351 20.2651 66.6989 20.1582 66.3191 19.9362C65.9495 19.6673 65.6112 19.3578 65.3106 19.0134L60.45 13.9158H60.3945V18.4537C60.3811 19.6471 59.7878 20.2437 58.6146 20.2437Z" fill="#061F61"/>
<path d="M74.5278 20.0212C74.0567 20.0614 73.588 19.9208 73.2168 19.6279C72.9361 19.2918 72.7968 18.8597 72.8286 18.4228C72.8294 18.099 72.9146 17.781 73.0756 17.5001C73.2818 17.1567 73.5253 16.8371 73.8017 16.5471L79.4137 10.557C80.1407 9.83636 80.762 9.01643 81.2591 8.12161C81.6189 7.42966 81.8106 6.66271 81.8188 5.88288C81.8455 5.48279 81.7782 5.08201 81.6223 4.71255C81.4665 4.3431 81.2264 4.01521 80.9213 3.75507C80.1918 3.22551 79.2996 2.96858 78.4002 3.02899C77.7565 3.02958 77.1163 3.12299 76.4993 3.30631C75.8127 3.49873 75.1621 3.80188 74.5732 4.20382C74.3019 4.40948 73.9645 4.50818 73.6252 4.48114C73.3406 4.44482 73.0753 4.31748 72.8689 4.1181C72.6644 3.90785 72.5199 3.64671 72.4504 3.36177C72.3746 3.06754 72.3851 2.75773 72.4807 2.4693C72.5976 2.13633 72.8209 1.85108 73.116 1.65751C73.9421 1.1019 74.8532 0.684647 75.8136 0.42217C76.7984 0.146338 77.8161 0.00555018 78.8389 0.00366665C80.0624 -0.0316252 81.2799 0.188171 82.4138 0.649069C83.3223 1.03081 84.089 1.68651 84.6071 2.52477C85.134 3.43292 85.396 4.47044 85.3635 5.51984C85.3636 6.30135 85.2306 7.07718 84.9702 7.81404C84.6993 8.62128 84.3138 9.38542 83.8256 10.083C83.2417 10.9543 82.5783 11.7695 81.844 12.5184L76.5951 18.0043V17.0514H84.8038C85.2177 17.0217 85.6273 17.1516 85.9484 17.4144C86.0868 17.5591 86.1933 17.7313 86.2611 17.9198C86.3288 18.1082 86.3563 18.3088 86.3417 18.5086C86.3549 18.712 86.3269 18.916 86.2593 19.1084C86.1918 19.3008 86.086 19.4775 85.9484 19.6279C85.7939 19.7672 85.6129 19.8739 85.4163 19.9415C85.2196 20.0091 85.0112 20.0362 84.8038 20.0212H74.5278Z" fill="#061F61"/>
<path d="M91.9133 20.0211C91.495 20.0446 91.0842 19.9034 90.7687 19.6278C90.4956 19.3209 90.3543 18.9188 90.3754 18.5085C90.3608 18.3087 90.3882 18.1082 90.456 17.9197C90.5237 17.7312 90.6303 17.5591 90.7687 17.4143C91.0926 17.1568 91.5001 17.0275 91.9133 17.0513H95.0394V3.30623H96.7689L92.6646 5.79708C92.3997 5.99093 92.0742 6.08375 91.7469 6.05879C91.4196 6.03382 91.112 5.89272 90.8796 5.66094C90.6766 5.43784 90.5327 5.1674 90.4611 4.87436C90.3862 4.57666 90.4056 4.26306 90.5166 3.97685C90.6707 3.63841 90.9358 3.36271 91.2679 3.1953L95.1201 0.870849C95.4705 0.657438 95.8362 0.470362 96.2143 0.311165C96.5373 0.155565 96.8895 0.0696683 97.2479 0.0590548C97.6031 0.0460743 97.9503 0.1666 98.2211 0.396882C98.3627 0.526525 98.4721 0.687535 98.5404 0.867025C98.6087 1.04651 98.634 1.2395 98.6144 1.43053V17.0614H101.463C101.868 17.0338 102.267 17.1639 102.578 17.4244C102.724 17.5646 102.837 17.7354 102.909 17.9245C102.982 18.1137 103.011 18.3166 102.996 18.5186C103.01 18.7242 102.98 18.9304 102.908 19.1235C102.836 19.3165 102.723 19.4919 102.578 19.6379C102.428 19.7749 102.252 19.8803 102.06 19.9479C101.869 20.0155 101.666 20.0438 101.463 20.0312L91.9133 20.0211Z" fill="#061F61"/>
<path d="M3.02947 0.613899C2.85551 0.456487 2.65142 0.336002 2.42955 0.259735C2.20768 0.183468 1.97265 0.153004 1.73867 0.170185C1.50553 0.153988 1.27153 0.18493 1.05062 0.261166C0.82971 0.337401 0.626426 0.457366 0.452903 0.613899C0.294581 0.792545 0.173372 1.0009 0.0963307 1.22683C0.0192889 1.45276 -0.0120468 1.69176 0.00414718 1.92991L0.0344004 18.5692C0.013641 19.0591 0.183521 19.538 0.508367 19.9054C0.68072 20.0624 0.882967 20.1831 1.10302 20.2602C1.32307 20.3373 1.55641 20.3692 1.78909 20.3541C2.24543 20.3732 2.69095 20.212 3.02947 19.9054C3.3477 19.5316 3.50856 19.049 3.47822 18.5591V1.91983C3.49683 1.68303 3.4666 1.44492 3.38941 1.22028C3.31221 0.99564 3.1897 0.789248 3.02947 0.613899Z" fill="#EE9125"/>
<path d="M11.5204 0.614401C11.3476 0.458258 11.1452 0.3385 10.9251 0.262267C10.7051 0.186035 10.472 0.154889 10.2396 0.170687C10.0065 0.15449 9.7725 0.185433 9.5516 0.261668C9.33069 0.337903 9.1274 0.457868 8.95388 0.614401C8.79556 0.793048 8.67435 1.0014 8.59731 1.22733C8.52027 1.45326 8.48893 1.69226 8.50512 1.93042L8.53538 18.5697C8.50504 19.0596 8.6659 19.5422 8.98413 19.916C9.15648 20.073 9.35873 20.1937 9.57878 20.2708C9.79884 20.3479 10.0322 20.3798 10.2649 20.3647C10.4983 20.3802 10.7325 20.3485 10.9535 20.2714C11.1744 20.1943 11.3775 20.0734 11.5506 19.916C11.8688 19.5422 12.0297 19.0596 11.9994 18.5697V1.93042C12.0154 1.68981 11.9811 1.44851 11.8986 1.22191C11.8161 0.99532 11.6873 0.788413 11.5204 0.614401Z" fill="#061F61"/>
<path d="M20.0218 0.614401C19.8491 0.458258 19.6466 0.3385 19.4266 0.262267C19.2066 0.186035 18.9734 0.154889 18.7411 0.170687C18.508 0.15449 18.274 0.185433 18.0531 0.261668C17.8322 0.337903 17.6289 0.457868 17.4553 0.614401C17.297 0.793048 17.1758 1.0014 17.0988 1.22733C17.0217 1.45326 16.9904 1.69226 17.0066 1.93042L17.0368 18.5697C17.0065 19.0596 17.1674 19.5422 17.4856 19.916C17.6579 20.073 17.8602 20.1937 18.0802 20.2708C18.3003 20.3479 18.5336 20.3798 18.7663 20.3647C18.9998 20.3802 19.234 20.3485 19.4549 20.2714C19.6759 20.1943 19.879 20.0734 20.0521 19.916C20.3703 19.5422 20.5312 19.0596 20.5008 18.5697V1.93042C20.5169 1.68981 20.4825 1.44851 20.4001 1.22191C20.3176 0.99532 20.1888 0.788413 20.0218 0.614401Z" fill="#FF5A5E"/>
</svg>
