<svg width="85" height="88" viewBox="0 0 85 88" fill="none" xmlns="http://www.w3.org/2000/svg">
<path d="M0.603765 40.01L7.62414 68.4118C8.0325 70.0681 10.4045 69.3358 10.1351 67.7144L2.71509 22.1216C2.47181 20.6483 0.108516 21.0319 0.151959 22.4703C0.214933 38.3702 1.53978 54.2398 4.11395 69.9286C4.84959 74.4153 5.69238 78.8845 6.64233 83.3362C6.96381 84.8356 9.13595 84.4085 9.2489 82.9875C10.0861 65.0914 9.82785 47.1605 8.47562 29.2961C8.06436 24.2051 7.59228 19.1228 7.05938 14.0491C6.87692 12.4103 4.45281 12.3056 4.45281 14.0491C4.30868 32.0275 5.65718 49.9867 8.48431 67.7405C8.7189 69.2399 11.0214 68.8215 11.0474 67.4005C11.2849 52.3482 11.1141 37.2988 10.5348 22.2524C10.361 18.004 10.1554 13.7615 9.91792 9.52474C9.91792 9.17794 9.78061 8.84534 9.5362 8.60011C9.29179 8.35488 8.96029 8.21711 8.61464 8.21711C8.26898 8.21711 7.93749 8.35488 7.69307 8.60011C7.44866 8.84534 7.31135 9.17794 7.31135 9.52474C6.06727 25.2007 6.25631 40.9581 7.87611 56.5995C8.04119 58.2384 10.4827 58.343 10.4827 56.5995L11.1083 9.87344C11.1083 8.17352 8.63201 8.21711 8.50169 9.87344L7.38086 23.9697C7.38509 24.2264 7.46401 24.4762 7.6079 24.6884C7.75179 24.9006 7.95438 25.066 8.19074 25.1642C8.4271 25.2624 8.68691 25.2891 8.93821 25.241C9.18951 25.193 9.42132 25.0723 9.60514 24.8938C14.3716 19.7051 18.839 14.2478 22.9856 8.54838C23.6285 7.67662 22.5511 6.20336 21.5172 6.63052C17.7619 8.15654 14.5964 10.8557 12.4897 14.3281C11.9424 15.1999 12.872 16.6819 13.9581 16.246C22.1625 13.0263 29.6792 8.26567 36.1053 2.21944L34.0548 0.632844C31.1399 5.3391 27.1788 9.30448 22.4816 12.2185C22.1964 12.3995 21.9923 12.6845 21.9123 13.0134C21.8322 13.3423 21.8825 13.6896 22.0525 13.9821C22.2224 14.2747 22.4989 14.4896 22.8236 14.5818C23.1484 14.674 23.4961 14.6362 23.7936 14.4763L41.8572 4.70394L40.076 2.91684C35.1416 10.735 29.137 17.8189 22.2383 23.961C20.9698 25.0856 22.8118 26.8814 24.0803 25.8091C30.7509 20.1676 38.2622 15.6111 46.3405 12.3056L44.8634 10.3878C38.9593 20.0222 30.5482 27.8586 20.5354 33.0534C19.0236 33.838 20.3529 35.9825 21.856 35.3112C28.571 32.3148 34.8777 28.4713 40.6234 23.8738L38.5902 22.2436C34.0374 29.531 28.336 36.0287 21.7083 41.4833L23.5677 41.4833C22.1299 39.8695 21.1673 37.8866 20.7873 35.7558C20.518 34.3174 18.0852 34.6313 18.2329 36.0958L20.6831 61.9085C20.8134 63.2597 22.9595 63.8263 23.2462 62.2572C24.3976 55.856 24.0586 49.2743 22.2557 43.0263C22.1631 42.7298 21.9689 42.4757 21.7075 42.309C21.4461 42.1423 21.1344 42.0738 20.8275 42.1156C20.5206 42.1573 20.2383 42.3067 20.0306 42.5371C19.8229 42.7676 19.7032 43.0644 19.6926 43.375C18.8263 54.2422 19.2991 65.1752 21.1001 75.9263C21.3434 77.4083 23.6546 77.016 23.6546 75.5776L23.7501 47.4548L21.1436 47.4548L21.1436 82.1158C21.1542 82.4263 21.2739 82.7231 21.4816 82.9536C21.6893 83.1841 21.9716 83.3334 22.2785 83.3752C22.5854 83.4169 22.8971 83.3484 23.1585 83.1817C23.4199 83.0151 23.6141 82.761 23.7067 82.4645C26.9586 68.476 28.043 54.0683 26.9215 39.7485C26.7912 38.0921 24.3149 38.005 24.3149 39.7485L24.4365 82.2552C24.4406 82.5685 24.5567 82.87 24.7636 83.1046C24.9705 83.3393 25.2546 83.4916 25.564 83.5339C25.8735 83.5761 26.1877 83.5055 26.4496 83.3348C26.7115 83.1641 26.9036 82.9048 26.991 82.6039C31.657 68.6596 33.22 53.8586 31.5699 39.2429C31.3874 37.6127 28.9633 37.4993 28.9633 39.2429L29.4933 80.9302C29.4933 82.3511 31.7697 82.7783 32.0999 81.2789C34.6961 67.4631 35.699 53.3934 35.0887 39.3475C35.0887 39.0007 34.9514 38.6681 34.707 38.4228C34.4626 38.1776 34.1311 38.0398 33.7855 38.0398C33.4398 38.0398 33.1083 38.1776 32.8639 38.4228C32.6195 38.6681 32.4822 39.0007 32.4822 39.3475C31.7804 52.3081 32.202 65.3054 33.742 78.1929C33.7461 78.5062 33.8622 78.8076 34.0691 79.0423C34.276 79.2769 34.5601 79.4293 34.8695 79.4715C35.1789 79.5137 35.4932 79.4431 35.7551 79.2724C36.017 79.1017 36.2091 78.8424 36.2965 78.5416C40.4239 65.4135 41.3183 51.4773 38.903 37.9265C38.625 36.3922 36.4442 36.8978 36.2965 38.2752C35.2452 52.1049 35.1756 65.9921 36.0879 79.8318C36.1835 81.244 38.2688 81.6799 38.6945 80.1805C42.0981 66.6988 43.3272 52.7572 42.335 38.8854C42.2394 37.4994 40.1021 37.0112 39.7284 38.5367C36.9978 51.3155 36.1778 64.4309 37.2956 77.4519C37.4173 78.8467 39.4765 79.3174 39.9022 77.8006C42.9007 65.9584 44.5074 53.8048 44.6896 41.5879H42.0831L42.0831 75.7781C42.0831 77.5216 44.5332 77.417 44.6896 75.7781L48.3128 38.6762H45.7062L43.7339 76.3535C43.6557 77.8442 45.906 78.097 46.2883 76.7022C48.7266 67.9865 50.1838 59.0242 50.6326 49.9829C50.7021 48.5445 48.3041 48.1696 48.0695 49.6342L42.3524 85.8207C42.281 86.1481 42.3376 86.4906 42.5106 86.7773C42.6836 87.064 42.9597 87.2732 43.2819 87.3615C43.6041 87.4499 43.9479 87.4108 44.2422 87.2522C44.5365 87.0936 44.7589 86.8277 44.8634 86.5094C48.391 75.1499 54.2613 64.6621 62.0929 55.7277L60.0597 54.1411C56.4337 62.5623 52.8135 70.9893 49.199 79.422C48.5387 80.9476 50.7716 82.2814 51.4493 80.7384C56.7927 68.443 64.2281 57.1745 73.4228 47.4374L71.3549 45.8508L57.7225 67.9497C56.8536 69.3881 59.0692 70.687 59.9729 69.2748C68.6614 55.7161 76.6839 41.768 84.0402 27.4306C84.8048 25.9312 82.5719 24.6148 81.7899 26.1055C79.586 30.36 76.2274 33.902 72.1021 36.3225L74.0136 37.7957C76.1698 29.9599 78.9714 22.3173 82.3894 14.9471C82.5487 14.6486 82.5864 14.2997 82.4945 13.9739C82.4027 13.648 82.1884 13.3707 81.8969 13.2001C81.6053 13.0296 81.2592 12.9792 80.9313 13.0595C80.6035 13.1398 80.3195 13.3446 80.139 13.6307L67.5927 33.2713L69.8431 34.5877C73.2172 27.4899 75.9759 20.1138 78.0885 12.541C78.161 12.2371 78.1233 11.9173 77.9823 11.6387C77.8412 11.3601 77.606 11.141 77.3187 11.0204C77.0314 10.8999 76.7107 10.8858 76.414 10.9807C76.1173 11.0756 75.8639 11.2733 75.6992 11.5385L62.953 34.9974L65.3337 35.9999L73.9615 12.0703C74.4133 10.8149 72.6495 9.89088 71.7806 10.7975C65.8921 16.9944 62.2744 25.0132 61.5194 33.5416C61.3891 35.041 63.6829 35.2851 64.0825 33.8903C66.3692 25.9562 67.539 17.7403 67.558 9.48115C67.558 8.26941 65.6812 7.58945 65.1339 8.81862C61.3501 17.3224 58.928 26.3722 57.9571 35.6338C57.8007 37.0896 60.2509 37.4296 60.5115 35.9825L65.3163 9.71653C65.3863 9.41454 65.3478 9.09745 65.2076 8.82115C65.0674 8.54485 64.8345 8.32708 64.5499 8.2062C64.2654 8.08533 63.9474 8.06911 63.6521 8.16042C63.3568 8.25172 63.1031 8.44468 62.9357 8.70529C58.4213 15.0159 55.3264 22.2346 53.8648 29.8628C53.5607 31.493 55.9587 32.2078 56.3845 30.5602C58.0403 24.0669 60.3247 17.7515 63.205 11.7041C63.7958 10.4662 62.1711 8.89708 61.1632 10.1175C57.245 14.8545 54.2344 20.278 52.2835 26.1142C51.7795 27.6137 53.8561 28.25 54.6641 27.1255L60.8765 18.4689C61.8148 17.1613 59.886 16.028 58.8346 16.8824L50.1026 23.9087C48.7906 24.9548 50.65 26.7942 51.9446 25.7568L60.6332 18.7305L58.5827 17.1439L52.4138 25.8091L54.7944 26.8116C56.6032 21.4086 59.3863 16.3852 63.0052 11.9918L60.9286 10.3791C57.9423 16.628 55.5678 23.1532 53.8387 29.8628L56.3584 30.5602C57.7708 23.1345 60.7869 16.1092 65.1947 9.97806L62.814 8.97554L58.0092 35.2502L60.6158 35.5902C61.5431 26.7844 63.8447 18.1797 67.4363 10.0914L65.0035 9.43757C64.9828 17.4757 63.8423 25.4716 61.615 33.1929L64.1694 33.5416C64.8982 25.6906 68.2511 18.3174 73.6834 12.6195L71.4592 11.3467L62.8227 35.3025C62.3101 36.7061 64.4996 37.604 65.2034 36.3138L77.9582 12.8548L75.5775 11.8523C73.5232 19.2053 70.852 26.3706 67.5927 33.2713C67.4334 33.5698 67.3957 33.9187 67.4876 34.2445C67.5795 34.5704 67.7937 34.8477 68.0853 35.0183C68.3768 35.1888 68.7229 35.2392 69.0508 35.1589C69.3786 35.0786 69.6627 34.8738 69.8431 34.5877L82.3894 14.9471L80.139 13.6307C76.6128 21.1978 73.7239 29.0478 71.5026 37.0983C71.4414 37.3476 71.4537 37.6094 71.538 37.8518C71.6223 38.0942 71.7749 38.3068 71.9774 38.4638C72.1799 38.6208 72.4235 38.7154 72.6785 38.736C72.9336 38.7567 73.1891 38.7026 73.4141 38.5803C77.9315 35.9375 81.6145 32.07 84.0402 27.4219L81.7812 26.0968C74.4306 40.4284 66.4082 54.3765 57.7138 67.941L59.9642 69.2661L73.6313 47.1671C73.7737 46.8926 73.8151 46.5764 73.7483 46.2743C73.6815 45.9721 73.5107 45.7033 73.2659 45.5149C73.0211 45.3266 72.718 45.2308 72.4099 45.2444C72.1017 45.258 71.8082 45.3801 71.5808 45.5892C62.2113 55.4716 54.6313 66.9178 49.1816 79.4133L51.432 80.7297C55.0464 72.3085 58.6667 63.8816 62.2927 55.4488C62.8227 54.2022 61.3109 52.6417 60.2422 53.8622C52.1079 63.1361 46.0123 74.0254 42.3524 85.8207L44.8634 86.5094L50.5631 50.3316L47.9565 49.9829C47.5176 58.7874 46.1013 67.5153 43.7339 76.0048L46.3405 76.3535L48.3041 38.6762C48.391 36.9327 45.8539 37.0286 45.6975 38.6762L42.0744 75.7781L44.6809 75.7781L44.6809 41.5879C44.6809 41.2411 44.5436 40.9085 44.2992 40.6632C44.0548 40.418 43.7233 40.2802 43.3777 40.2802C43.032 40.2802 42.7005 40.418 42.4561 40.6632C42.2117 40.9085 42.0744 41.2411 42.0744 41.5879C41.9021 53.5698 40.3273 65.49 37.3825 77.1032L39.937 77.4519C38.8288 64.6689 39.6224 51.7915 42.2916 39.2429L39.7284 38.8942C40.7034 52.5322 39.4918 66.2388 36.1401 79.4918L38.6945 79.8405C37.7821 66.0008 37.8518 52.1136 38.903 38.2839L36.3399 38.6326C38.648 51.7279 37.7535 65.1896 33.7333 77.8616L36.2965 78.2103C34.7564 65.3228 34.3349 52.3255 35.0366 39.3649H32.43C33.0474 53.1758 32.0736 67.0121 29.5281 80.5989L32.1346 80.9476L31.5699 39.2429H28.9633C30.6058 53.62 29.0843 68.1836 24.5061 81.9065L27.1126 82.2552L26.9475 39.7921H24.341C25.4593 53.8705 24.4043 68.0378 21.2131 81.7932L23.8197 82.1419L23.8197 47.4809C23.8197 47.1341 23.6823 46.8015 23.4379 46.5563C23.1935 46.3111 22.862 46.1733 22.5164 46.1733C22.1707 46.1733 21.8392 46.3111 21.5948 46.5563C21.3504 46.8015 21.2131 47.1341 21.2131 47.4809L21.048 75.6038L23.6111 75.2638C21.8679 64.7376 21.4273 54.0357 22.2992 43.4011L19.7447 43.7498C21.4347 49.5403 21.7707 55.6439 20.7265 61.5859L23.2897 61.9346L20.8395 36.1133L18.2763 36.462C18.7681 39.0251 19.9558 41.4023 21.7083 43.3314C21.9584 43.5687 22.2895 43.7009 22.6337 43.7009C22.9778 43.7009 23.3089 43.5687 23.559 43.3314C30.3452 37.7165 36.1812 31.0368 40.8406 23.5513C41.7094 22.1913 39.8762 21.1016 38.7901 21.9647C33.1994 26.403 27.0681 30.1087 20.5441 32.9924L21.83 35.2677C32.2172 29.86 40.9467 21.725 47.0877 11.7303C47.6351 10.8585 46.6967 9.36783 45.6106 9.81242C37.1294 13.2713 29.2424 18.0457 22.2383 23.961L24.0803 25.8091C31.1388 19.5094 37.2807 12.2465 42.3263 4.23319C43.0562 3.08247 41.6486 1.84458 40.5886 2.48968L22.4816 12.2185L23.7936 14.4763C28.873 11.3269 33.1556 7.03897 36.3051 1.94919C37.1045 0.667714 35.3233 -0.666071 34.2633 0.371318C28.1718 6.11618 21.0484 10.6482 13.2717 13.7266L14.7401 15.6445C16.4848 12.7423 19.1005 10.4688 22.2123 9.14989L20.7352 7.23203C16.7123 12.7448 12.3813 18.0244 7.76316 23.0457L9.98743 23.9697L11.0996 9.82986H8.493L7.86742 56.5559H10.474C8.85685 40.9289 8.66781 25.1863 9.90924 9.52474H7.30266C8.15414 24.5538 8.57409 39.5974 8.56251 54.6555C8.56251 58.9038 8.52196 63.1522 8.44087 67.4005L10.9953 67.0518C8.2175 49.5247 6.90096 31.7958 7.05938 14.0491L4.45281 14.0491C6.40703 31.8562 7.2775 49.7662 7.05938 67.6795C6.99567 72.7764 6.84506 77.879 6.60758 82.9875L9.16202 82.6388C5.89934 67.2447 3.86555 51.6139 3.08001 35.8953C2.83673 31.4261 2.71509 26.9511 2.71509 22.4703L0.151959 22.819L7.62414 68.4118L10.1351 67.7144L3.11477 39.3126C2.71509 37.6824 0.195402 38.3711 0.603765 40.01Z" fill="#EE9125"/>
</svg>
