<svg width="84" height="91" viewBox="0 0 84 91" fill="none" xmlns="http://www.w3.org/2000/svg">
<path d="M7.57288 17.487L7.5205 70.0588L7.5205 84.8299H10.1395C9.95084 64.5712 10.9741 44.3194 13.2037 24.1829C13.8148 18.4502 14.5481 12.7263 15.4036 7.01108L12.8283 6.66188C11.9437 26.9154 11.9437 47.1834 12.8283 67.466C13.0786 73.251 13.4016 79.0361 13.7973 84.8211C13.9021 86.4798 16.4163 86.5671 16.4163 84.8211C16.1981 63.3804 15.9886 41.8872 17.9703 20.5163C18.4853 14.4752 19.2361 8.44279 20.2313 2.44532L17.6123 2.09612L19.0091 31.97L19.7075 46.907C19.9083 51.2719 19.8908 55.8115 20.4845 60.1939C21.0083 63.9915 22.344 67.8676 25.8185 69.9104C25.9913 70.0112 26.1848 70.0711 26.3843 70.0854C26.5839 70.0998 26.784 70.0683 26.9694 69.9932C27.1549 69.9182 27.3207 69.8017 27.4541 69.6527C27.5875 69.5036 27.685 69.326 27.7391 69.1334C30.5936 54.3924 31.8376 39.3848 31.4493 24.375C31.3271 20.074 31.0739 15.7818 30.6898 11.4983C30.5676 10.1451 28.4025 9.58642 28.1232 11.1491C25.419 26.179 25.6116 41.5872 28.6906 56.5448C29.5818 60.8264 30.7097 65.0553 32.0691 69.212C32.3834 70.1897 33.9461 70.6088 34.4611 69.5175C41.4451 54.825 42.7546 38.4214 42.6935 22.3758C42.6935 17.7315 42.5538 13.0959 42.4141 8.45152C42.4141 8.10422 42.2761 7.77115 42.0306 7.52557C41.785 7.27999 41.4519 7.14203 41.1046 7.14203C40.7573 7.14203 40.4242 7.27999 40.1787 7.52557C39.9331 7.77115 39.7951 8.10422 39.7951 8.45152C39.3877 23.2983 39.5303 38.1392 40.2229 52.9743C40.4266 57.2403 40.671 61.5093 40.9562 65.7811C41.0522 67.1604 43.226 67.6668 43.5315 66.1303C46.2917 52.1362 47.7818 37.9214 47.9838 23.6591C48.042 19.5851 47.9925 15.5373 47.8354 11.5157L45.2164 11.5157L48.429 55.9075L49.302 68.5049C49.3893 69.7009 51.1179 70.4167 51.7464 69.1683C58.8002 55.2004 59.0185 39.3294 59.0621 24.0694L56.4431 24.4186L64.7541 69.6048L67.0937 82.3942C67.3992 84.0529 69.9222 83.3545 69.6166 81.6958L61.3843 36.5096L59.0534 23.7202C58.7828 22.2448 56.4868 22.629 56.4344 24.0694C56.4344 38.823 56.3035 54.3711 49.4505 67.8414L51.8861 68.5049L48.7521 24.2004L47.8354 11.603C47.7132 9.93562 45.1553 9.9007 45.2164 11.603C45.9005 29.6773 44.4885 47.7699 41.0086 65.5192L43.5752 65.8684C42.5625 51.045 42.1027 36.204 42.1959 21.3457C42.1959 17.068 42.2686 12.7932 42.4141 8.52136H39.7951C40.2665 24.2353 40.7205 40.3333 36.7135 55.6631C35.6022 59.9872 34.0912 64.1987 32.2001 68.243L34.5921 68.5572C28.6003 50.2816 27.2443 30.8033 30.6461 11.8737L28.0883 11.5332C29.4034 26.2767 29.1253 41.1189 27.2589 55.8028C26.7264 60.0281 26.0367 64.2272 25.2336 68.4001L27.1542 67.6144C24.3344 65.947 23.4177 62.5685 23.0336 59.5043C22.5098 55.2615 22.5273 50.9227 22.3352 46.6538L20.9995 18.1156L20.2313 2.09612C20.1615 0.708056 17.9004 0.219179 17.656 1.74692C14.2338 23.1266 13.5878 44.803 13.6227 66.4271C13.6227 72.5381 13.6926 78.6491 13.7537 84.8211H16.3727C14.9933 64.5851 14.4957 44.3229 14.8798 24.0345C14.9962 18.2145 15.1796 12.4237 15.4298 6.66188C15.4909 5.21271 13.0727 4.83732 12.8545 6.31269C9.89045 26.5598 8.14133 46.9662 7.61653 67.4223C7.46521 73.2423 7.42156 79.0623 7.48558 84.8822C7.48558 85.2295 7.62355 85.5626 7.86912 85.8082C8.1147 86.0538 8.44777 86.1917 8.79507 86.1917C9.14237 86.1917 9.47545 86.0538 9.72102 85.8082C9.9666 85.5626 10.1046 85.2295 10.1046 84.8822L10.1744 32.2319L10.1744 17.4608C10.1744 17.1135 10.0364 16.7805 9.79086 16.5349C9.54529 16.2893 9.21221 16.1513 8.86491 16.1513C8.51761 16.1513 8.18454 16.2893 7.93896 16.5349C7.69338 16.7805 7.55542 17.1135 7.55542 17.4608L7.57288 17.487Z" fill="#061F61"/>
<path d="M16.5743 32.3012L1.09609 36.6662C-0.571333 37.1376 0.161982 39.4423 1.79448 39.1979C23.2692 35.9331 44.3093 30.2668 64.5192 22.3054C70.2635 20.0356 75.9351 17.5883 81.5339 14.9635L80.2156 12.7024C61.7468 25.4058 42.4809 36.9094 22.5368 47.1421C16.8507 50.0521 11.1181 52.8602 5.33884 55.5665L6.6658 57.8276C19.3766 51.3674 31.811 44.4038 43.9689 36.9368C47.4609 34.7892 50.9296 32.6009 54.375 30.3719C55.7805 29.4989 54.4972 27.2116 53.0568 28.1021L15.7886 51.2365L5.0944 57.8712C4.79762 58.051 4.58245 58.3393 4.49446 58.6749C4.40647 59.0106 4.45257 59.3673 4.62299 59.6696C9.15383 66.5051 19.1147 60.918 24.536 58.526L52.3584 46.304L68.2556 39.3201L66.6755 37.2162C51.4977 49.0367 35.2304 59.3876 18.0933 68.1289C13.2918 70.5733 8.42634 72.9013 3.49682 75.1129C2.36193 75.6192 2.86827 77.1644 3.8111 77.5049C7.85307 79.0064 12.1569 78.1072 16.033 76.4922C20.1138 74.6221 24.0785 72.5085 27.9058 70.163C36.1119 65.4721 44.2308 60.627 52.2623 55.6276C56.7844 52.8166 61.2716 49.9532 65.7239 47.0373C67.1294 46.1644 65.8636 43.912 64.4057 44.7763L36.6183 61.3632C27.4867 66.7234 18.233 71.9876 9.22367 77.6271C5.51344 79.9318 1.78575 82.9873 1.43656 87.6665C1.43132 87.8707 1.4736 88.0734 1.56008 88.2584C1.64656 88.4435 1.77486 88.6059 1.93486 88.7329C2.09486 88.8599 2.28218 88.948 2.48205 88.9901C2.68191 89.0323 2.88884 89.0275 3.08652 88.976C23.1654 84.8991 40.8697 73.847 57.1336 61.8084C61.7431 58.4037 66.2739 54.8856 70.8047 51.3325C71.9746 50.4595 70.4556 48.4603 69.2246 49.2722C56.799 57.4202 44.6382 65.9668 32.7422 74.9121C29.4015 77.4205 26.0783 79.9551 22.7726 82.5159C21.8996 83.2143 22.6329 84.8119 23.6979 84.7507C30.3065 84.3841 36.1905 81.2588 41.6642 77.7668C47.7751 73.8645 53.7988 69.8051 59.8574 65.8242L70.4817 58.8402L69.1199 56.553C55.8154 66.2083 42.3888 75.9422 30.9438 87.8586C30.0708 88.7316 30.9438 90.5736 32.2184 90.0498C45.9707 84.3435 58.4806 76.0144 69.05 65.5274C70.0627 64.5147 68.6834 62.5505 67.4612 63.4758C62.0836 67.4998 58.0263 73.0341 55.8067 79.3731C55.7207 79.7016 55.7631 80.0506 55.9253 80.349C56.0875 80.6474 56.3572 80.8728 56.6797 80.9794C61.2754 82.6994 66.2844 82.987 71.0467 81.8042C75.8091 80.6214 80.1015 78.0237 83.3584 74.3534C84.4584 73.0788 82.6076 71.2193 81.5077 72.5026C78.5849 75.841 74.7105 78.2051 70.4049 79.2772C66.0993 80.3493 61.5687 80.0781 57.4217 78.5001L58.2947 80.1064C60.2978 74.3979 63.9422 69.4081 68.7707 65.7631L67.1993 63.6592C56.9659 73.8506 44.8477 81.9541 31.52 87.5181L32.7945 89.7094C44.0911 77.9501 57.3082 68.3384 70.4817 58.8141C71.8174 57.845 70.5865 55.6102 69.1548 56.553L51.1624 68.3821C45.549 72.0923 39.9706 76.1867 33.912 79.1898C30.7481 80.8434 27.2829 81.8411 23.7241 82.123L24.5971 84.3579C36.237 75.3602 48.1156 66.7147 60.2328 58.4212C63.6491 56.0932 67.0858 53.7914 70.5428 51.5158L68.954 49.4643C53.2401 61.6862 37.0286 74.2399 18.3203 81.6341C13.1641 83.6915 7.83536 85.2866 2.39685 86.4007L4.05554 87.6665C4.34363 83.8254 8.11497 81.3548 11.0919 79.539C15.4569 76.92 19.8218 74.3621 24.1257 71.7693L50.6036 56.003L65.7065 47.0112L64.3882 44.7501C56.7583 49.732 49.0439 54.58 41.2451 59.2942C33.5453 63.9298 25.8106 68.6789 17.8052 72.7733C13.7283 74.8597 9.07526 76.6581 4.5095 74.9819L4.81505 77.3739C22.494 69.5012 39.3814 59.9598 55.248 48.8794C59.7643 45.7366 64.1904 42.4658 68.5262 39.0669C69.7921 38.0804 68.177 36.4479 66.9374 37.0154L40.9047 48.4778L27.9843 54.1697C24.0122 55.9157 20.0488 57.9847 15.9283 59.3466C13.1609 60.2196 8.82209 61.2672 6.88405 58.3426L6.41263 60.1672L43.6808 37.0328L54.375 30.3981L53.0568 28.1283C41.0676 35.863 28.7991 43.1089 16.2513 49.8659C12.6371 51.8039 8.9996 53.7041 5.33884 55.5665C3.82856 56.3347 5.15551 58.526 6.6658 57.8276C26.9705 48.3323 46.6446 37.5432 65.5668 25.5267C70.9502 22.1046 76.2726 18.5835 81.5339 14.9635C81.8204 14.7822 82.0255 14.4968 82.1059 14.1674C82.1863 13.838 82.1358 13.4903 81.9651 13.1973C81.7943 12.9044 81.5165 12.6891 81.1902 12.5968C80.8639 12.5045 80.5146 12.5424 80.2156 12.7024C60.6447 21.8695 40.105 28.8069 18.9838 33.3837C13.0532 34.6641 7.09065 35.7612 1.09609 36.6749L1.79448 39.2066L17.264 34.8503C17.5997 34.7589 17.8853 34.5378 18.058 34.2357C18.2308 33.9337 18.2764 33.5754 18.185 33.2397C18.0935 32.9039 17.8724 32.6183 17.5704 32.4456C17.2683 32.2729 16.91 32.2272 16.5743 32.3186V32.3012Z" fill="#061F61"/>
</svg>
